# xmcd CD database file
#
# Track frame offsets:
#	150
#	26841
#	45996
#	66516
#	92013
#	119232
#	134143
#	157378
#	177482
#	202086
#	241243
#	265397
#	286338
#
# Disc length: 4071 seconds
#
# Revision: 2
# Processed by: cddbd v1.5.2PL0 Copyright (c) Steve Scherf et al.
# Submitted via: CDex 1.51
#
DISCID=d60fe50d
DTITLE=JOHNNY B. MOORE - Chicago Blues Session Volume 27(911 Blues)
DYEAR=1997
DGENRE=Blues
TTITLE0=Lookin' Good
TTITLE1=Black Coffee Drinkin' Woman
TTITLE2=I'm  Goin Home To See My Baby
TTITLE3=Why Ya Wanna Do Me Like That
TTITLE4=Kiss You In The Morning
TTITLE5=Race Track Blues
TTITLE6=Why Don't You Be My Mama
TTITLE7=Candy Kitchen Blues
TTITLE8=Kokomo Me Baby
TTITLE9=911 Blues
TTITLE10=She's A Mean Woman
TTITLE11=Mean Ol' Frisco
TTITLE12=That No Way To Get Along
EXTD=YEAR: 1997
EXTT0=
EXTT1=
EXTT2=
EXTT3=
EXTT4=
EXTT5=
EXTT6=
EXTT7=
EXTT8=
EXTT9=
EXTT10=
EXTT11=
EXTT12=
PLAYORDER=
